<?xml version="1.0" encoding="utf-8"?>
<!-- Generator: Adobe Illustrator 23.0.0, SVG Export Plug-In . SVG Version: 6.00 Build 0)  -->
<svg version="1.1" id="Calque_1" xmlns="http://www.w3.org/2000/svg" xmlns:xlink="http://www.w3.org/1999/xlink" x="0px" y="0px"
	 viewBox="0 0 160 38.7" style="enable-background:new 0 0 160 38.7;" xml:space="preserve">
<style type="text/css">
	.st0{fill:#0069B3;}
	.st1{fill:#E20613;}
	.st2{fill:#F29100;}
	.st3{fill:#5EB030;}
	.st4{fill:#FFFFFF;}
</style>
<path class="st0" d="M160,22.5c0,1.9-1.5,3.4-3.4,3.4c-1.8,0-3.4-1.5-3.4-3.4c0-1.9,1.5-3.4,3.4-3.4C158.5,19.2,160,20.7,160,22.5z"
	/>
<path class="st1" d="M160,35.4c0,1.9-1.5,3.4-3.4,3.4c-1.8,0-3.4-1.5-3.4-3.4c0-1.9,1.5-3.4,3.4-3.4C158.5,32,160,33.5,160,35.4z"/>
<path class="st2" d="M149.8,22.5c0,1.9-1.5,3.4-3.4,3.4c-1.8,0-3.4-1.5-3.4-3.4c0-1.9,1.5-3.4,3.4-3.4
	C148.3,19.2,149.8,20.7,149.8,22.5z"/>
<path class="st3" d="M149.8,35.4c0,1.9-1.5,3.4-3.4,3.4c-1.8,0-3.4-1.5-3.4-3.4c0-1.9,1.5-3.4,3.4-3.4
	C148.3,32,149.8,33.5,149.8,35.4z"/>
<path class="st4" d="M0,38.7V7c0-2,0.7-3.6,2-5c1.3-1.3,3-2,5-2h26.6v6.7H6.7v9.3h26.8v6.7H6.7v16.1H0z"/>
<path class="st4" d="M44.8,30.9h20.1v7.8h-21c-1.9,0-3.5-0.7-4.9-2.1c-1.4-1.4-2.1-3-2.1-4.9V0h7.9V30.9z"/>
<path class="st4" d="M102.3,31.7c0,1.9-0.7,3.6-2,4.9c-1.4,1.4-3,2-4.9,2H75.7c-1.9,0-3.5-0.7-4.9-2.1c-1.4-1.4-2.1-3-2.1-4.9V0h7.4
	v32h18.7V0h7.5V31.7z"/>
<path class="st4" d="M127,19.3l12.9,19.4H132l-9-13.5l-9,13.5h-7.8l12.9-19.3L106.3,0h7.8l9,13.5L132,0h7.9L127,19.3z"/>
</svg>
