<?xml version="1.0" standalone="no"?>
<!DOCTYPE svg PUBLIC "-//W3C//DTD SVG 20010904//EN"
 "http://www.w3.org/TR/2001/REC-SVG-20010904/DTD/svg10.dtd">
<svg version="1.0" xmlns="http://www.w3.org/2000/svg"
 width="1080.000000pt" height="1080.000000pt" viewBox="0 0 1080.000000 1080.000000"
 preserveAspectRatio="xMidYMid meet">
<metadata>
Created by potrace 1.11, written by Peter Selinger 2001-2013
</metadata>
<g transform="translate(0.000000,1080.000000) scale(0.100000,-0.100000)"
fill="#000000" stroke="none">
<path d="M2399 10796 c-2 -2 -33 -7 -69 -10 -206 -22 -443 -96 -650 -204 -66
-34 -175 -100 -205 -124 -134 -105 -175 -140 -238 -202 -290 -288 -463 -635
-533 -1066 -10 -61 -13 -393 -4 -445 4 -27 11 -72 14 -98 10 -70 60 -260 91
-341 184 -485 551 -864 1035 -1068 79 -34 209 -77 255 -85 11 -2 36 -8 55 -13
19 -5 52 -12 74 -16 21 -3 47 -7 58 -9 41 -8 177 -18 263 -18 84 -1 273 11
285 18 3 1 25 6 50 9 205 28 495 141 691 269 212 138 404 325 532 517 20 30
42 61 48 68 26 31 132 257 168 357 33 95 66 224 86 340 18 110 24 310 11 448
-6 67 -15 118 -52 295 -23 109 -122 344 -202 477 -101 169 -295 390 -442 503
-255 195 -574 336 -855 377 -27 4 -61 10 -75 12 -31 6 -386 14 -391 9z"/>
<path d="M8036 10788 c-256 -31 -510 -116 -731 -246 -44 -25 -84 -50 -90 -54
-5 -4 -43 -32 -82 -61 -208 -155 -402 -378 -522 -602 -89 -164 -168 -393 -196
-565 -16 -93 -20 -152 -20 -310 0 -158 9 -302 20 -320 2 -3 6 -25 10 -49 3
-24 11 -55 16 -70 6 -14 10 -26 9 -26 -8 0 38 -147 67 -215 151 -355 324 -577
643 -823 44 -34 144 -95 234 -142 382 -200 851 -261 1276 -164 25 6 52 12 60
14 29 7 203 65 239 81 439 190 769 502 972 922 76 157 120 302 164 542 11 59
14 371 4 454 -17 149 -92 441 -120 471 -5 5 -9 15 -9 23 0 17 -78 173 -128
257 -30 51 -54 85 -109 160 -138 186 -373 388 -594 508 -65 36 -210 101 -259
117 -104 34 -201 61 -230 66 -19 3 -42 7 -50 10 -16 6 -44 10 -155 23 -89 11
-329 10 -419 -1z"/>
<path d="M2508 3705 c-2 -1 -46 -5 -98 -9 -52 -3 -104 -8 -115 -10 -11 -2 -40
-7 -65 -11 -217 -34 -481 -137 -690 -270 -222 -141 -443 -368 -583 -600 -117
-193 -212 -448 -242 -645 -2 -19 -9 -61 -13 -94 -14 -89 -12 -349 4 -458 30
-214 78 -369 179 -573 282 -568 820 -946 1460 -1024 71 -9 401 -6 465 3 628
96 1145 466 1422 1018 80 161 152 388 174 547 22 168 22 425 0 537 -2 12 -7
37 -10 55 -80 506 -421 999 -874 1266 -291 171 -577 253 -934 267 -43 2 -79 2
-80 1z"/>
<path d="M8208 3705 c-2 -1 -48 -5 -103 -9 -109 -7 -118 -8 -250 -36 -81 -16
-247 -66 -300 -89 -188 -83 -333 -169 -474 -281 -283 -226 -512 -562 -612
-900 -26 -88 -56 -222 -66 -295 -10 -76 -10 -391 -1 -470 7 -57 10 -74 23
-135 3 -14 7 -35 10 -48 11 -62 49 -183 85 -272 138 -348 387 -653 705 -863
211 -138 510 -254 730 -283 28 -3 69 -9 92 -14 58 -10 333 -9 423 2 153 18
376 74 475 118 200 88 330 164 463 267 118 92 276 253 342 347 8 12 18 26 23
31 29 35 107 166 152 256 73 145 141 344 159 463 4 21 8 48 11 60 15 65 17 97
20 266 3 204 -12 337 -59 512 -158 596 -624 1084 -1221 1280 -33 11 -67 22
-75 23 -8 2 -44 10 -80 19 -36 8 -83 18 -105 22 -22 3 -42 7 -45 9 -9 6 -317
24 -322 20z"/>
</g>
</svg>
